<svg width="906" height="1199" viewBox="0 0 906 1199" fill="none" xmlns="http://www.w3.org/2000/svg">
<mask id="mask0_482_2294" style="mask-type:luminance" maskUnits="userSpaceOnUse" x="96" y="-145" width="823" height="1233">
<path d="M918.628 -144.24H96.9883V1087.15H918.628V-144.24Z" fill="white"/>
</mask>
<g mask="url(#mask0_482_2294)">
<path d="M776.713 229.062C777.386 228.381 778.575 228.305 779.382 228.854C780.19 229.421 780.279 230.423 779.629 231.104C778.956 231.784 777.767 231.86 776.982 231.312C776.175 230.744 776.085 229.742 776.735 229.062H776.713Z" fill="#F9A4FF"/>
<path d="M397.777 692.749C398.45 692.068 399.639 691.992 400.447 692.541C401.254 693.108 401.344 694.11 400.693 694.772C400.02 695.453 398.832 695.547 398.024 694.98C397.217 694.413 397.127 693.41 397.777 692.73V692.749Z" fill="#F9A4FF"/>
<path d="M448.11 216.903C448.783 216.222 449.972 216.147 450.78 216.695C451.587 217.262 451.677 218.265 451.026 218.945C450.353 219.626 449.165 219.702 448.38 219.153C447.572 218.586 447.482 217.584 448.133 216.903H448.11Z" fill="#F9A4FF"/>
<path d="M151.18 312.64C151.853 311.959 153.041 311.883 153.849 312.432C154.656 312.999 154.746 314.001 154.096 314.682C153.423 315.362 152.234 315.438 151.426 314.89C150.619 314.322 150.529 313.32 151.18 312.64Z" fill="#F9A4FF"/>
<path d="M809.371 399.356C810.044 398.675 811.233 398.6 812.04 399.148C812.848 399.715 812.938 400.718 812.287 401.398C811.614 402.079 810.425 402.155 809.64 401.606C808.833 401.039 808.743 400.037 809.394 399.356H809.371Z" fill="#F9A4FF"/>
<path d="M341.926 812.499C342.599 811.819 343.787 811.743 344.595 812.291C345.402 812.859 345.492 813.861 344.842 814.542C344.169 815.222 342.98 815.298 342.172 814.75C341.365 814.182 341.275 813.18 341.926 812.518V812.499Z" fill="#F9A4FF"/>
<path d="M209.902 558.532C210.575 557.852 211.764 557.776 212.572 558.324C213.379 558.892 213.469 559.894 212.818 560.575C212.145 561.255 210.957 561.331 210.172 560.783C209.364 560.215 209.274 559.213 209.925 558.532H209.902Z" fill="#F9A4FF"/>
<path d="M311.085 257.085C311.758 256.404 312.947 256.328 313.754 256.877C314.562 257.444 314.651 258.446 314.001 259.127C313.328 259.808 312.139 259.883 311.332 259.335C310.524 258.768 310.434 257.765 311.085 257.085Z" fill="#F9A4FF"/>
<path d="M339.997 184.626C340.67 183.945 341.859 183.869 342.666 184.417C343.474 184.985 343.563 185.987 342.913 186.668C342.24 187.348 341.051 187.424 340.244 186.876C339.436 186.308 339.347 185.306 339.997 184.626Z" fill="#F9A4FF"/>
<path d="M334.12 600.283C334.793 599.603 335.982 599.527 336.767 600.076C337.574 600.643 337.664 601.645 337.014 602.326C336.341 603.006 335.152 603.082 334.344 602.534C333.537 601.966 333.447 600.964 334.098 600.283H334.12Z" fill="#F9A4FF"/>
<path d="M367.519 74.8964C368.551 73.8564 370.368 73.724 371.601 74.5938C372.835 75.4636 372.992 76.9953 371.96 78.0353C370.928 79.0753 369.112 79.2076 367.878 78.3378C366.644 77.468 366.487 75.9364 367.519 74.8964Z" fill="#F9A4FF"/>
<path d="M260.863 289.93C261.536 289.249 262.725 289.173 263.532 289.722C264.34 290.289 264.43 291.291 263.779 291.972C263.106 292.653 261.917 292.728 261.11 292.18C260.303 291.613 260.213 290.611 260.863 289.93Z" fill="#F9A4FF"/>
<path d="M194.604 250.58C195.277 249.899 196.466 249.824 197.274 250.372C198.081 250.92 198.171 251.942 197.52 252.622C196.847 253.303 195.659 253.379 194.851 252.83C194.044 252.263 193.954 251.261 194.604 250.58Z" fill="#F9A4FF"/>
<path d="M189.603 212.687C190.275 212.006 191.464 211.93 192.272 212.479C193.079 213.046 193.169 214.048 192.518 214.729C191.846 215.409 190.657 215.485 189.849 214.937C189.042 214.369 188.952 213.367 189.603 212.687Z" fill="#F9A4FF"/>
<g style="mix-blend-mode:soft-light">
<path d="M567.058 554.751C568.247 553.559 570.355 553.389 571.768 554.391C573.181 555.394 573.383 557.171 572.195 558.362C571.006 559.554 568.897 559.724 567.484 558.722C566.071 557.719 565.869 555.942 567.058 554.751Z" fill="#F9A4FF"/>
</g>
<g style="mix-blend-mode:soft-light">
<path d="M153.692 783.115C154.881 781.924 156.989 781.754 158.402 782.756C159.815 783.758 160.017 785.535 158.828 786.727C157.64 787.918 155.531 788.088 154.118 787.086C152.705 786.084 152.503 784.306 153.692 783.115Z" fill="#F9A4FF"/>
</g>
<g style="mix-blend-mode:soft-light">
<path d="M525.944 666.408C527.133 665.217 529.241 665.047 530.654 666.049C532.067 667.051 532.269 668.829 531.08 670.02C529.892 671.211 527.783 671.381 526.37 670.379C524.957 669.377 524.755 667.6 525.944 666.408Z" fill="#F9A4FF"/>
</g>
<g style="mix-blend-mode:soft-light">
<path d="M360.969 543.254C362.158 542.063 364.266 541.892 365.68 542.895C367.093 543.897 367.295 545.674 366.106 546.866C364.917 548.057 362.808 548.227 361.395 547.225C359.982 546.223 359.78 544.445 360.969 543.254Z" fill="#F9A4FF"/>
</g>
<g style="mix-blend-mode:soft-light">
<path d="M204.249 296.132C205.438 294.941 207.547 294.771 208.96 295.773C210.373 296.775 210.575 298.552 209.386 299.744C208.197 300.935 206.089 301.105 204.676 300.103C203.263 299.101 203.061 297.323 204.249 296.132Z" fill="#F9A4FF"/>
</g>
<g style="mix-blend-mode:soft-light">
<path d="M227.308 838.556C228.497 837.365 230.605 837.195 232.018 838.197C233.431 839.199 233.633 840.977 232.445 842.168C231.256 843.359 229.147 843.529 227.734 842.527C226.321 841.525 226.119 839.748 227.308 838.556Z" fill="#F9A4FF"/>
</g>
<g style="mix-blend-mode:soft-light">
<path d="M790.283 396.69C792.099 394.856 795.352 394.61 797.528 396.142C799.703 397.673 799.995 400.415 798.178 402.249C796.361 404.084 793.109 404.329 790.933 402.798C788.757 401.266 788.466 398.543 790.283 396.69Z" fill="#F9A4FF"/>
</g>
<g style="mix-blend-mode:soft-light">
<path d="M672.278 572.657C673.467 571.466 675.575 571.296 676.988 572.298C678.401 573.3 678.603 575.078 677.414 576.269C676.226 577.46 674.117 577.63 672.704 576.628C671.291 575.626 671.089 573.849 672.278 572.657Z" fill="#F9A4FF"/>
</g>
<path style="mix-blend-mode:screen" fill-rule="evenodd" clip-rule="evenodd" d="M363.976 891.539C366.6 885.659 363.101 879.097 356.125 876.885C349.149 874.672 341.366 877.622 338.742 883.503C336.117 889.384 339.616 895.945 346.592 898.157C353.568 900.37 361.351 897.42 363.976 891.539Z" fill="url(#paint0_radial_482_2294)"/>
<path style="mix-blend-mode:screen" fill-rule="evenodd" clip-rule="evenodd" d="M222.688 297.682C225.312 291.802 221.813 285.24 214.837 283.028C207.861 280.816 200.078 283.765 197.454 289.646C194.829 295.527 198.328 302.088 205.304 304.301C212.28 306.513 220.063 303.563 222.688 297.682Z" fill="url(#paint1_radial_482_2294)"/>
<path style="mix-blend-mode:screen" fill-rule="evenodd" clip-rule="evenodd" d="M619.523 890.518C622.147 884.638 618.648 878.076 611.672 875.864C604.696 873.651 596.913 876.601 594.289 882.482C591.664 888.363 595.163 894.924 602.139 897.136C609.115 899.349 616.898 896.399 619.523 890.518Z" fill="url(#paint2_radial_482_2294)"/>
<path style="mix-blend-mode:screen" fill-rule="evenodd" clip-rule="evenodd" d="M817.805 677.319C820.429 671.438 816.93 664.877 809.954 662.664C802.978 660.452 795.195 663.402 792.571 669.283C789.946 675.163 793.446 681.725 800.421 683.937C807.397 686.149 815.18 683.2 817.805 677.319Z" fill="url(#paint3_radial_482_2294)"/>
<path style="mix-blend-mode:screen" fill-rule="evenodd" clip-rule="evenodd" d="M642.603 746.072C643.545 743.954 642.289 741.591 639.777 740.777C637.265 739.983 634.461 741.042 633.496 743.16C632.554 745.278 633.81 747.641 636.323 748.455C638.835 749.249 641.639 748.19 642.603 746.072Z" fill="url(#paint4_radial_482_2294)"/>
<path style="mix-blend-mode:screen" fill-rule="evenodd" clip-rule="evenodd" d="M528.546 1018.55C529.757 1015.85 528.142 1012.8 524.934 1011.78C521.727 1010.76 518.116 1012.12 516.904 1014.83C515.693 1017.53 517.308 1020.56 520.516 1021.6C523.723 1022.62 527.334 1021.26 528.546 1018.55Z" fill="url(#paint5_radial_482_2294)"/>
<path style="mix-blend-mode:screen" fill-rule="evenodd" clip-rule="evenodd" d="M591.484 863.346C592.695 860.642 591.08 857.617 587.873 856.577C584.665 855.555 581.054 856.917 579.843 859.621C578.632 862.325 580.247 865.369 583.454 866.39C586.662 867.411 590.273 866.05 591.484 863.346Z" fill="url(#paint6_radial_482_2294)"/>
<path style="mix-blend-mode:screen" fill-rule="evenodd" clip-rule="evenodd" d="M740.915 661.946C742.126 659.242 740.511 656.198 737.303 655.177C734.096 654.155 730.485 655.517 729.274 658.221C728.062 660.925 729.677 663.95 732.885 664.99C736.092 666.011 739.681 664.65 740.915 661.946Z" fill="url(#paint7_radial_482_2294)"/>
<path style="mix-blend-mode:screen" fill-rule="evenodd" clip-rule="evenodd" d="M740.915 1073.39C742.126 1070.68 740.511 1067.66 737.303 1066.62C734.096 1065.6 730.485 1066.96 729.274 1069.66C728.062 1072.37 729.677 1075.41 732.885 1076.43C736.092 1077.45 739.681 1076.09 740.915 1073.39Z" fill="url(#paint8_radial_482_2294)"/>
<path style="mix-blend-mode:screen" opacity="0.2" fill-rule="evenodd" clip-rule="evenodd" d="M529.555 1059C538.258 1039.62 526.639 1017.95 503.648 1010.63C480.657 1003.29 454.952 1013.09 446.272 1032.47C437.569 1051.85 449.188 1073.52 472.179 1080.84C495.17 1088.17 520.875 1078.38 529.555 1059Z" fill="url(#paint9_radial_482_2294)"/>
<path style="mix-blend-mode:screen" opacity="0.4" fill-rule="evenodd" clip-rule="evenodd" d="M935.9 742.271C954.248 701.352 929.776 655.63 881.215 640.163C832.676 624.695 778.44 645.325 760.092 686.263C741.744 727.182 766.216 772.904 814.777 788.372C863.316 803.839 917.552 783.209 935.9 742.271Z" fill="url(#paint10_radial_482_2294)"/>
<path style="mix-blend-mode:screen" opacity="0.2" fill-rule="evenodd" clip-rule="evenodd" d="M586.146 251.96C610.124 198.505 578.139 138.79 514.729 118.576C451.319 98.3625 380.484 125.327 356.506 178.783C332.528 232.238 364.514 291.953 427.924 312.167C491.334 332.381 562.168 305.416 586.146 251.96Z" fill="url(#paint11_radial_482_2294)"/>
<path style="mix-blend-mode:screen" opacity="0.2" fill-rule="evenodd" clip-rule="evenodd" d="M594.108 348.737C606.153 321.886 590.093 291.877 558.22 281.723C526.369 271.569 490.773 285.108 478.728 311.978C466.683 338.829 482.743 368.837 514.616 378.991C546.467 389.145 582.063 375.607 594.108 348.737Z" fill="url(#paint12_radial_482_2294)"/>
<path style="mix-blend-mode:screen" opacity="0.41" fill-rule="evenodd" clip-rule="evenodd" d="M574.797 698.667C580.382 686.206 572.935 672.289 558.154 667.581C543.372 662.872 526.864 669.15 521.278 681.611C515.693 694.072 523.14 707.989 537.922 712.698C552.703 717.406 569.212 711.128 574.797 698.667Z" fill="url(#paint13_radial_482_2294)"/>
<path style="mix-blend-mode:screen" opacity="0.5" fill-rule="evenodd" clip-rule="evenodd" d="M551.559 801.816C554.497 795.274 550.572 787.956 542.811 785.479C535.05 783.002 526.37 786.311 523.432 792.853C520.493 799.396 524.418 806.714 532.179 809.191C539.94 811.668 548.621 808.359 551.559 801.816Z" fill="url(#paint14_radial_482_2294)"/>
<path style="mix-blend-mode:screen" opacity="0.5" fill-rule="evenodd" clip-rule="evenodd" d="M806.769 1029.86C809.707 1023.32 805.782 1016 798.021 1013.52C790.26 1011.04 781.58 1014.35 778.641 1020.9C775.703 1027.44 779.628 1034.76 787.389 1037.23C795.15 1039.71 803.831 1036.4 806.769 1029.86Z" fill="url(#paint15_radial_482_2294)"/>
<path style="mix-blend-mode:screen" opacity="0.5" fill-rule="evenodd" clip-rule="evenodd" d="M417.224 553.106C420.162 546.563 416.237 539.245 408.476 536.768C400.715 534.291 392.035 537.6 389.097 544.143C386.158 550.685 390.083 558.003 397.844 560.48C405.605 562.957 414.286 559.648 417.224 553.106Z" fill="url(#paint16_radial_482_2294)"/>
</g>
<defs>
<radialGradient id="paint0_radial_482_2294" cx="0" cy="0" r="1" gradientUnits="userSpaceOnUse" gradientTransform="translate(351.477 887.299) rotate(17.6693) scale(13.2567 11.5947)">
<stop offset="0.02" stop-color="#8224FF"/>
<stop offset="0.33" stop-color="#8023FC"/>
<stop offset="0.46" stop-color="#7D22F5"/>
<stop offset="0.56" stop-color="#7620E9"/>
<stop offset="0.65" stop-color="#6D1ED7"/>
<stop offset="0.72" stop-color="#611BBF"/>
<stop offset="0.79" stop-color="#5317A3"/>
<stop offset="0.85" stop-color="#411280"/>
<stop offset="0.9" stop-color="#2D0C59"/>
<stop offset="0.95" stop-color="#17062D"/>
<stop offset="1"/>
</radialGradient>
<radialGradient id="paint1_radial_482_2294" cx="0" cy="0" r="1" gradientUnits="userSpaceOnUse" gradientTransform="translate(210.151 293.451) rotate(17.6693) scale(13.2567 11.5947)">
<stop offset="0.02" stop-color="#8224FF"/>
<stop offset="0.33" stop-color="#8023FC"/>
<stop offset="0.46" stop-color="#7D22F5"/>
<stop offset="0.56" stop-color="#7620E9"/>
<stop offset="0.65" stop-color="#6D1ED7"/>
<stop offset="0.72" stop-color="#611BBF"/>
<stop offset="0.79" stop-color="#5317A3"/>
<stop offset="0.85" stop-color="#411280"/>
<stop offset="0.9" stop-color="#2D0C59"/>
<stop offset="0.95" stop-color="#17062D"/>
<stop offset="1"/>
</radialGradient>
<radialGradient id="paint2_radial_482_2294" cx="0" cy="0" r="1" gradientUnits="userSpaceOnUse" gradientTransform="translate(607.031 886.294) rotate(17.6693) scale(13.2567 11.5947)">
<stop offset="0.02" stop-color="#8224FF"/>
<stop offset="0.33" stop-color="#8023FC"/>
<stop offset="0.46" stop-color="#7D22F5"/>
<stop offset="0.56" stop-color="#7620E9"/>
<stop offset="0.65" stop-color="#6D1ED7"/>
<stop offset="0.72" stop-color="#611BBF"/>
<stop offset="0.79" stop-color="#5317A3"/>
<stop offset="0.85" stop-color="#411280"/>
<stop offset="0.9" stop-color="#2D0C59"/>
<stop offset="0.95" stop-color="#17062D"/>
<stop offset="1"/>
</radialGradient>
<radialGradient id="paint3_radial_482_2294" cx="0" cy="0" r="1" gradientUnits="userSpaceOnUse" gradientTransform="translate(805.324 673.075) rotate(17.6693) scale(13.2567 11.5947)">
<stop offset="0.02" stop-color="#8224FF"/>
<stop offset="0.33" stop-color="#8023FC"/>
<stop offset="0.46" stop-color="#7D22F5"/>
<stop offset="0.56" stop-color="#7620E9"/>
<stop offset="0.65" stop-color="#6D1ED7"/>
<stop offset="0.72" stop-color="#611BBF"/>
<stop offset="0.79" stop-color="#5317A3"/>
<stop offset="0.85" stop-color="#411280"/>
<stop offset="0.9" stop-color="#2D0C59"/>
<stop offset="0.95" stop-color="#17062D"/>
<stop offset="1"/>
</radialGradient>
<radialGradient id="paint4_radial_482_2294" cx="0" cy="0" r="1" gradientUnits="userSpaceOnUse" gradientTransform="translate(638.172 744.387) rotate(17.6692) scale(4.77856 4.17949)">
<stop offset="0.02" stop-color="#8224FF"/>
<stop offset="0.33" stop-color="#8023FC"/>
<stop offset="0.46" stop-color="#7D22F5"/>
<stop offset="0.56" stop-color="#7620E9"/>
<stop offset="0.65" stop-color="#6D1ED7"/>
<stop offset="0.72" stop-color="#611BBF"/>
<stop offset="0.79" stop-color="#5317A3"/>
<stop offset="0.85" stop-color="#411280"/>
<stop offset="0.9" stop-color="#2D0C59"/>
<stop offset="0.95" stop-color="#17062D"/>
<stop offset="1"/>
</radialGradient>
<radialGradient id="paint5_radial_482_2294" cx="0" cy="0" r="1" gradientUnits="userSpaceOnUse" gradientTransform="translate(522.852 1016.48) rotate(17.6693) scale(6.12185 5.35438)">
<stop offset="0.02" stop-color="#EC7CFF"/>
<stop offset="0.33" stop-color="#EA7AFC"/>
<stop offset="0.46" stop-color="#E377F5"/>
<stop offset="0.56" stop-color="#D771E9"/>
<stop offset="0.65" stop-color="#C768D7"/>
<stop offset="0.72" stop-color="#B15DBF"/>
<stop offset="0.79" stop-color="#974FA3"/>
<stop offset="0.85" stop-color="#773E80"/>
<stop offset="0.9" stop-color="#522B59"/>
<stop offset="0.95" stop-color="#2A162D"/>
<stop offset="1"/>
</radialGradient>
<radialGradient id="paint6_radial_482_2294" cx="0" cy="0" r="1" gradientUnits="userSpaceOnUse" gradientTransform="translate(585.78 861.271) rotate(17.6693) scale(6.12185 5.35438)">
<stop offset="0.02" stop-color="#EC7CFF"/>
<stop offset="0.33" stop-color="#EA7AFC"/>
<stop offset="0.46" stop-color="#E377F5"/>
<stop offset="0.56" stop-color="#D771E9"/>
<stop offset="0.65" stop-color="#C768D7"/>
<stop offset="0.72" stop-color="#B15DBF"/>
<stop offset="0.79" stop-color="#974FA3"/>
<stop offset="0.85" stop-color="#773E80"/>
<stop offset="0.9" stop-color="#522B59"/>
<stop offset="0.95" stop-color="#2A162D"/>
<stop offset="1"/>
</radialGradient>
<radialGradient id="paint7_radial_482_2294" cx="0" cy="0" r="1" gradientUnits="userSpaceOnUse" gradientTransform="translate(735.207 659.875) rotate(17.6692) scale(6.12185 5.35438)">
<stop offset="0.02" stop-color="#EC7CFF"/>
<stop offset="0.33" stop-color="#EA7AFC"/>
<stop offset="0.46" stop-color="#E377F5"/>
<stop offset="0.56" stop-color="#D771E9"/>
<stop offset="0.65" stop-color="#C768D7"/>
<stop offset="0.72" stop-color="#B15DBF"/>
<stop offset="0.79" stop-color="#974FA3"/>
<stop offset="0.85" stop-color="#773E80"/>
<stop offset="0.9" stop-color="#522B59"/>
<stop offset="0.95" stop-color="#2A162D"/>
<stop offset="1"/>
</radialGradient>
<radialGradient id="paint8_radial_482_2294" cx="0" cy="0" r="1" gradientUnits="userSpaceOnUse" gradientTransform="translate(735.246 1071.32) rotate(17.6693) scale(6.12185 5.35438)">
<stop offset="0.02" stop-color="#EC7CFF"/>
<stop offset="0.33" stop-color="#EA7AFC"/>
<stop offset="0.46" stop-color="#E377F5"/>
<stop offset="0.56" stop-color="#D771E9"/>
<stop offset="0.65" stop-color="#C768D7"/>
<stop offset="0.72" stop-color="#B15DBF"/>
<stop offset="0.79" stop-color="#974FA3"/>
<stop offset="0.85" stop-color="#773E80"/>
<stop offset="0.9" stop-color="#522B59"/>
<stop offset="0.95" stop-color="#2A162D"/>
<stop offset="1"/>
</radialGradient>
<radialGradient id="paint9_radial_482_2294" cx="0" cy="0" r="1" gradientUnits="userSpaceOnUse" gradientTransform="translate(488.042 1045.52) rotate(17.6693) scale(43.7117 38.2318)">
<stop offset="0.02" stop-color="#6B34FF"/>
<stop offset="0.33" stop-color="#4A24B2"/>
<stop offset="1"/>
</radialGradient>
<radialGradient id="paint10_radial_482_2294" cx="0" cy="0" r="1" gradientUnits="userSpaceOnUse" gradientTransform="translate(856.826 712.173) rotate(17.6693) scale(92.4002 80.8164)">
<stop offset="0.02" stop-color="#6B34FF"/>
<stop offset="0.33" stop-color="#4A24B2"/>
<stop offset="1"/>
</radialGradient>
<radialGradient id="paint11_radial_482_2294" cx="0" cy="0" r="1" gradientUnits="userSpaceOnUse" gradientTransform="translate(471.433 215.153) rotate(17.6693) scale(120.521 105.412)">
<stop offset="0.46" stop-color="#493495"/>
<stop offset="0.69" stop-color="#483393"/>
<stop offset="0.77" stop-color="#44308C"/>
<stop offset="0.82" stop-color="#3E2C80"/>
<stop offset="0.87" stop-color="#36266F"/>
<stop offset="0.91" stop-color="#2B1F59"/>
<stop offset="0.94" stop-color="#1E153E"/>
<stop offset="0.98" stop-color="#0F0A1E"/>
<stop offset="1"/>
</radialGradient>
<radialGradient id="paint12_radial_482_2294" cx="0" cy="0" r="1" gradientUnits="userSpaceOnUse" gradientTransform="translate(509.669 337.325) rotate(17.6693) scale(60.2495 52.6963)">
<stop offset="0.46" stop-color="#6B34FF"/>
<stop offset="0.66" stop-color="#6A33FD"/>
<stop offset="0.74" stop-color="#6732F6"/>
<stop offset="0.79" stop-color="#622FEA"/>
<stop offset="0.83" stop-color="#5B2CD9"/>
<stop offset="0.86" stop-color="#5227C3"/>
<stop offset="0.9" stop-color="#4622A8"/>
<stop offset="0.92" stop-color="#391B87"/>
<stop offset="0.95" stop-color="#291462"/>
<stop offset="0.97" stop-color="#170B37"/>
<stop offset="1"/>
</radialGradient>
<radialGradient id="paint13_radial_482_2294" cx="0" cy="0" r="1" gradientUnits="userSpaceOnUse" gradientTransform="translate(548.154 689.939) rotate(17.6693) scale(28.0988 24.5762)">
<stop offset="0.02" stop-color="#6B34FF"/>
<stop offset="0.33" stop-color="#4A24B2"/>
<stop offset="1"/>
</radialGradient>
<radialGradient id="paint14_radial_482_2294" cx="0" cy="0" r="1" gradientUnits="userSpaceOnUse" gradientTransform="translate(537.617 797.112) rotate(17.6693) scale(14.7541 12.9044)">
<stop offset="0.02" stop-color="#6B34FF"/>
<stop offset="0.33" stop-color="#4A24B2"/>
<stop offset="1"/>
</radialGradient>
<radialGradient id="paint15_radial_482_2294" cx="0" cy="0" r="1" gradientUnits="userSpaceOnUse" gradientTransform="translate(792.858 1025.17) rotate(17.6693) scale(14.7541 12.9045)">
<stop offset="0.02" stop-color="#6B34FF"/>
<stop offset="0.33" stop-color="#4A24B2"/>
<stop offset="1"/>
</radialGradient>
<radialGradient id="paint16_radial_482_2294" cx="0" cy="0" r="1" gradientUnits="userSpaceOnUse" gradientTransform="translate(403.267 548.416) rotate(17.6693) scale(14.7541 12.9045)">
<stop offset="0.02" stop-color="#6B34FF"/>
<stop offset="0.33" stop-color="#4A24B2"/>
<stop offset="1"/>
</radialGradient>
</defs>
</svg>
